<?xml version="1.0" encoding="iso-8859-1"?>
<!-- Generator: Adobe Illustrator 19.0.0, SVG Export Plug-In . SVG Version: 6.00 Build 0)  -->
<svg xmlns="http://www.w3.org/2000/svg" xmlns:xlink="http://www.w3.org/1999/xlink" version="1.1" id="Layer_1" x="0px" y="0px" viewBox="0 0 512 512" style="enable-background:new 0 0 512 512;" xml:space="preserve">
<circle style="fill:#FFDF47;" cx="255.996" cy="255.996" r="255.996"/>
<path style="fill:#FEC000;" d="M512,256.001c0-30.311-5.282-59.386-14.953-86.371l-66.638-66.638  c-6.512-9.777-18.154-15.689-30.567-14.257l-293.454,33.843c-15.547,1.793-27.3,14.522-28.457,29.596  c-10.804,5.227-18.301,16.31-18.301,29.059v181.115c0,11.167,5.754,21.051,14.44,26.846l113.558,113.558  c21.767,6.019,44.692,9.249,68.373,9.249C397.385,512,512,397.385,512,256.001z"/>
<path style="fill:#2A2A2C;" d="M427.982,332.738l-293.454,33.843c-17.622,2.032-33.704-10.724-35.736-28.346l-20.75-179.923  c-2.032-17.623,10.724-33.704,28.346-35.736l293.454-33.843c17.623-2.032,33.704,10.724,35.736,28.346l20.75,179.922  C458.36,314.624,445.604,330.705,427.982,332.738z"/>
<path style="fill:#0088FF;" d="M387.281,394.6H91.882c-17.739,0-32.253-14.514-32.253-32.253V181.233  c0-17.739,14.513-32.253,32.253-32.253h295.4c17.739,0,32.253,14.513,32.253,32.253v181.115  C419.534,380.087,405.021,394.6,387.281,394.6z"/>
<path style="fill:#006EF5;" d="M387.281,148.979H239.581V394.6h147.699c17.739,0,32.253-14.514,32.253-32.253V181.233  C419.534,163.493,405.021,148.979,387.281,148.979z"/>
<rect x="59.631" y="193.983" style="fill:#2A2A2C;" width="359.91" height="48.535"/>
<rect x="239.581" y="193.983" style="fill:#171719;" width="179.95" height="48.535"/>
<circle style="fill:#FFFFFF;" cx="138.531" cy="319.943" r="38.337"/>
<circle style="fill:#FF8900;" cx="138.531" cy="319.943" r="27.937"/>
<g>
	<rect x="206.929" y="300.634" style="fill:#FFDF47;" width="172.04" height="11.123"/>
	<rect x="206.929" y="328.125" style="fill:#FFDF47;" width="172.04" height="11.123"/>
</g>
<g>
	<rect x="239.581" y="300.634" style="fill:#FEC000;" width="139.387" height="11.123"/>
	<rect x="239.581" y="328.125" style="fill:#FEC000;" width="139.387" height="11.123"/>
</g>
<g>
</g>
<g>
</g>
<g>
</g>
<g>
</g>
<g>
</g>
<g>
</g>
<g>
</g>
<g>
</g>
<g>
</g>
<g>
</g>
<g>
</g>
<g>
</g>
<g>
</g>
<g>
</g>
<g>
</g>
</svg>
