<?xml version="1.0" encoding="iso-8859-1"?>
<!-- Generator: Adobe Illustrator 19.0.0, SVG Export Plug-In . SVG Version: 6.00 Build 0)  -->
<svg xmlns="http://www.w3.org/2000/svg" xmlns:xlink="http://www.w3.org/1999/xlink" version="1.1" id="Layer_1" x="0px" y="0px" viewBox="0 0 512.001 512.001" style="enable-background:new 0 0 512.001 512.001;" xml:space="preserve">
<circle style="fill:#FFA91F;" cx="255.997" cy="255.996" r="255.996"/>
<path style="fill:#E67500;" d="M512,255.999c0-31.418-5.672-61.506-16.026-89.316l-77.776-77.873  c-52.319-52.319-137.144-52.319-189.463,0c-47.478,47.478-51.868,121.726-13.175,174.157l-23.806,23.806l-0.614-0.614  c-6.143-6.143-16.194-6.143-22.336,0l-90.955,90.955c-6.143,6.143-6.143,16.194,0,22.336l29.71,29.71l70.858,70.858  c24.473,7.774,50.536,11.983,77.584,11.983C397.385,512,512,397.385,512,255.999z"/>
<rect x="196.517" y="266.882" transform="matrix(-0.7071 -0.7071 0.7071 -0.7071 164.5437 648.8619)" style="fill:#E1E1E3;" width="40.277" height="46.942"/>
<rect x="213.715" y="274.001" transform="matrix(-0.7071 -0.7071 0.7071 -0.7071 171.6793 666.0555)" style="fill:#AEADB3;" width="20.139" height="46.942"/>
<circle style="fill:#FFFFFF;" cx="323.465" cy="183.544" r="133.975"/>
<path style="fill:#E1E1E3;" d="M418.198,88.811c-0.001-0.001-0.002-0.002-0.003-0.003L228.732,278.27  c0.001,0.001,0.002,0.002,0.003,0.004c52.319,52.319,137.145,52.318,189.463,0S470.518,141.13,418.198,88.811z"/>
<circle style="fill:#49BBEE;" cx="323.465" cy="183.544" r="104.718"/>
<path style="fill:#0082D1;" d="M397.516,109.493c-0.001-0.001-0.002-0.002-0.003-0.003L249.415,257.588  c0.001,0.001,0.002,0.002,0.003,0.003c40.896,40.896,107.201,40.896,148.098,0S438.411,150.39,397.516,109.493z"/>
<circle style="fill:#FFFFFF;" cx="284.533" cy="144.612" r="27.485"/>
<path style="fill:#003D8D;" d="M107.559,429.16l-29.71-29.709c-6.143-6.143-6.143-16.194,0-22.336l90.955-90.955  c6.143-6.143,16.194-6.143,22.336,0l29.71,29.709c6.143,6.143,6.143,16.194,0,22.336l-90.955,90.955  C123.753,435.302,113.702,435.302,107.559,429.16z"/>
<path style="fill:#002C6A;" d="M220.85,315.869l-14.855-14.855L92.704,414.306l14.855,14.855c6.143,6.143,16.194,6.143,22.336,0  l90.955-90.955C226.993,332.063,226.993,322.011,220.85,315.869z"/>
<g>
</g>
<g>
</g>
<g>
</g>
<g>
</g>
<g>
</g>
<g>
</g>
<g>
</g>
<g>
</g>
<g>
</g>
<g>
</g>
<g>
</g>
<g>
</g>
<g>
</g>
<g>
</g>
<g>
</g>
</svg>
