<?xml version="1.0" encoding="iso-8859-1"?>
<!-- Generator: Adobe Illustrator 19.0.0, SVG Export Plug-In . SVG Version: 6.00 Build 0)  -->
<svg version="1.1" id="Capa_1" xmlns="http://www.w3.org/2000/svg" xmlns:xlink="http://www.w3.org/1999/xlink" x="0px" y="0px"
	 viewBox="0 0 512.001 512.001" style="enable-background:new 0 0 512.001 512.001;" xml:space="preserve">
<path style="fill:#146AA8;" d="M481.53,347.033l30.015-191.649c3.121-19.448-10.112-37.747-29.561-40.877l0,0L76.973,49.501
	C57.525,46.38,39.227,59.613,36.106,79.061l-14.392,89.627v177.23L481.53,347.033z"/>
<path style="fill:#126099;" d="M481.985,114.507L366.953,96.049C289.694,214.264,164.799,296.142,69.019,346.034l412.511,0.999
	l30.015-191.649C514.666,135.935,501.433,117.637,481.985,114.507L481.985,114.507z"/>
<path style="fill:#4398D1;" d="M35.669,159.771h410.192c19.698,0,35.669,15.971,35.669,35.669v231.848
	c0,19.698-15.971,35.669-35.669,35.669H35.669C15.971,462.956,0,446.986,0,427.288V195.44C0,175.742,15.971,159.771,35.669,159.771z
	"/>
<path style="fill:#3E8CC7;" d="M445.861,159.771h-7.134c-84.179,149.444-241.469,251.956-337.49,303.185h344.624
	c19.698,0,35.669-15.971,35.669-35.669V195.44C481.53,175.742,465.559,159.771,445.861,159.771z"/>
<rect x="44.586" y="204.357" style="fill:#FDB62F;" width="89.172" height="71.338"/>
<g>
	<rect x="44.586" y="231.109" style="fill:#FD7B2F;" width="26.752" height="17.834"/>
	<rect x="107.007" y="231.109" style="fill:#FD7B2F;" width="26.752" height="17.834"/>
</g>
<circle style="fill:#FDB62F;" cx="392.358" cy="373.784" r="44.586"/>
<circle style="fill:#DE4C3C;" cx="338.854" cy="373.784" r="44.586"/>
<g>
	<rect x="35.669" y="338.115" style="fill:#87CED9;" width="53.503" height="17.834"/>
	<rect x="124.841" y="338.115" style="fill:#87CED9;" width="53.503" height="17.834"/>
	<rect x="214.013" y="338.115" style="fill:#87CED9;" width="53.503" height="17.834"/>
	<rect x="35.669" y="391.619" style="fill:#87CED9;" width="231.848" height="17.834"/>
	<rect x="312.103" y="204.357" style="fill:#87CED9;" width="17.834" height="35.669"/>
	<rect x="347.772" y="204.357" style="fill:#87CED9;" width="17.834" height="35.669"/>
	<rect x="383.44" y="204.357" style="fill:#87CED9;" width="17.834" height="35.669"/>
	<rect x="419.109" y="204.357" style="fill:#87CED9;" width="17.834" height="35.669"/>
</g>
<g>
</g>
<g>
</g>
<g>
</g>
<g>
</g>
<g>
</g>
<g>
</g>
<g>
</g>
<g>
</g>
<g>
</g>
<g>
</g>
<g>
</g>
<g>
</g>
<g>
</g>
<g>
</g>
<g>
</g>
</svg>
