<?xml version="1.0" encoding="iso-8859-1"?>
<!-- Generator: Adobe Illustrator 17.1.0, SVG Export Plug-In . SVG Version: 6.00 Build 0)  -->
<!DOCTYPE svg PUBLIC "-//W3C//DTD SVG 1.1//EN" "http://www.w3.org/Graphics/SVG/1.1/DTD/svg11.dtd">
<svg version="1.1" id="Capa_1" xmlns="http://www.w3.org/2000/svg" xmlns:xlink="http://www.w3.org/1999/xlink" x="0px" y="0px"
	 viewBox="0 0 451.234 451.234" style="enable-background:new 0 0 451.234 451.234;" xml:space="preserve">
<g>
	<path d="M317,196.382V53.679c0-16.542-13.458-30-30-30H30c-16.542,0-30,13.458-30,30v142.703c0,16.542,13.458,30,30,30h257
		C303.542,226.382,317,212.924,317,196.382z M20,196.382V53.679c0-5.514,4.486-10,10-10h257c5.514,0,10,4.486,10,10v142.703
		c0,5.514-4.486,10-10,10H30C24.486,206.382,20,201.895,20,196.382z"/>
	<path d="M447.221,254.061L375.87,130.477c-8.551-14.81-23.065-21.323-33.766-15.146L332,121.164
		c-4.783,2.761-6.422,8.877-3.66,13.66c2.761,4.782,8.876,6.42,13.66,3.66l9.223-5.325c1.392,0.517,4.631,2.649,7.327,7.317
		l30.209,52.324l-52.511,30.317c-4.783,2.762-6.422,8.877-3.66,13.66c1.852,3.208,5.213,5.002,8.669,5.002
		c1.696,0,3.416-0.433,4.991-1.342l52.511-30.317l8.942,15.487l-239.889,138.5l-8.942-15.487l157.837-91.127
		c4.783-2.762,6.422-8.877,3.66-13.66s-8.878-6.423-13.66-3.66l-157.837,91.127l-30.209-52.324
		c-1.325-2.294-1.671-4.986-0.976-7.582c0.695-2.595,2.342-4.754,4.635-6.078l17.797-10.274c4.783-2.761,6.422-8.877,3.661-13.66
		c-2.763-4.783-8.877-6.422-13.66-3.66l-17.798,10.274c-6.92,3.995-11.876,10.467-13.955,18.223
		c-2.078,7.756-1.021,15.838,2.974,22.758l35.207,60.98c0.001,0.001,0.001,0.003,0.002,0.004l0.002,0.003l18.937,32.8
		c0.001,0.002,0.002,0.003,0.002,0.005c0.001,0.001,0.002,0.002,0.002,0.003l17.198,29.789c3.996,6.921,10.467,11.876,18.222,13.955
		c2.599,0.696,5.233,1.041,7.849,1.04c5.191,0,10.308-1.356,14.91-4.014l222.568-128.5
		C450.566,286.771,455.492,268.387,447.221,254.061z M430.876,271.644c-0.695,2.595-2.342,4.754-4.636,6.078l-222.568,128.5
		c-2.295,1.324-4.987,1.669-7.582,0.976c-2.595-0.696-4.754-2.343-6.079-4.637l-12.201-21.132l239.889-138.5l12.201,21.132
		C431.225,266.354,431.571,269.048,430.876,271.644z"/>
	<path d="M267,166.382h-49.593c-5.523,0-10,4.478-10,10s4.477,10,10,10H267c5.523,0,10-4.478,10-10S272.523,166.382,267,166.382z"/>
	<path d="M183.296,166.382h-49.593c-5.523,0-10,4.478-10,10s4.477,10,10,10h49.593c5.523,0,10-4.478,10-10
		S188.819,166.382,183.296,166.382z"/>
	<path d="M99.593,166.382H50c-5.523,0-10,4.478-10,10s4.477,10,10,10h49.593c5.523,0,10-4.478,10-10S105.116,166.382,99.593,166.382
		z"/>
	<path d="M92.703,63.679H70c-16.542,0-30,13.458-30,30v22.703c0,16.542,13.458,30,30,30h22.703c16.542,0,30-13.458,30-30V93.679
		C122.703,77.137,109.245,63.679,92.703,63.679z M102.703,116.382c0,5.514-4.486,10-10,10H70c-5.514,0-10-4.486-10-10V93.679
		c0-5.514,4.486-10,10-10h22.703c5.514,0,10,4.486,10,10V116.382z"/>
</g>
<g>
</g>
<g>
</g>
<g>
</g>
<g>
</g>
<g>
</g>
<g>
</g>
<g>
</g>
<g>
</g>
<g>
</g>
<g>
</g>
<g>
</g>
<g>
</g>
<g>
</g>
<g>
</g>
<g>
</g>
</svg>
