<?xml version="1.0" encoding="iso-8859-1"?>
<!-- Generator: Adobe Illustrator 17.1.0, SVG Export Plug-In . SVG Version: 6.00 Build 0)  -->
<!DOCTYPE svg PUBLIC "-//W3C//DTD SVG 1.1//EN" "http://www.w3.org/Graphics/SVG/1.1/DTD/svg11.dtd">
<svg version="1.1" id="Capa_1" xmlns="http://www.w3.org/2000/svg" xmlns:xlink="http://www.w3.org/1999/xlink" x="0px" y="0px"
	 viewBox="0 0 442 442" style="enable-background:new 0 0 442 442;" xml:space="preserve">
<g>
	<path d="M411.992,422H30.008c-5.522,0-10,4.477-10,10s4.478,10,10,10h381.984c5.522,0,10-4.477,10-10S417.515,422,411.992,422z"/>
	<path d="M30.008,402.524h100.017c5.522,0,10-4.477,10-10V193.229c0-5.523-4.478-10-10-10H30.008c-5.522,0-10,4.477-10,10v199.295
		C20.008,398.047,24.485,402.524,30.008,402.524z M40.008,203.229h80.017v179.295H40.008V203.229z"/>
	<path d="M170.992,402.524h100.016c5.522,0,10-4.477,10-10v-290.91c0-5.523-4.478-10-10-10H170.992c-5.522,0-10,4.477-10,10v290.91
		C160.992,398.047,165.47,402.524,170.992,402.524z M180.992,111.614h80.016v270.91h-80.016V111.614z"/>
	<path d="M411.992,0H311.976c-5.522,0-10,4.477-10,10v382.524c0,5.523,4.478,10,10,10h100.017c5.522,0,10-4.477,10-10V10
		C421.992,4.477,417.515,0,411.992,0z M401.992,382.524h-80.017V20h80.017V382.524z"/>
</g>
<g>
</g>
<g>
</g>
<g>
</g>
<g>
</g>
<g>
</g>
<g>
</g>
<g>
</g>
<g>
</g>
<g>
</g>
<g>
</g>
<g>
</g>
<g>
</g>
<g>
</g>
<g>
</g>
<g>
</g>
</svg>
